<svg width="77" height="186" viewBox="0 0 77 186" fill="none" xmlns="http://www.w3.org/2000/svg">
<path d="M45.2326 104.808C30.0706 114.089 25.2996 105.625 24.8093 100.234C24.8093 92.3913 24.8093 85.8559 14.5162 74.2556C-10.3182 46.807 -2.47578 3.01984 31.835 0.242301C66.1458 -2.53524 56.1793 19.1949 44.0889 33.246C32.0223 47.2693 39.6472 51.5283 57.7058 61.615L57.8132 61.675C81.3406 75.8894 61.7344 88.6334 50.1341 90.9208C38.5338 93.2082 48.5003 100.234 45.2326 104.808Z" fill="url(#paint0_linear_2754_3)"/>
<path d="M76.2437 152.502C77.5263 137.809 63.9475 134.272 55.6417 134.273C54.6432 134.273 53.7909 134.957 53.5013 135.912C53.0281 137.474 54.2259 139.049 55.8533 139.172C63.1877 139.724 73.0776 142.844 71.2533 152.502C69.4829 161.874 61.3596 163.641 55.6085 163.243C54.0239 163.134 52.5386 164.314 52.5386 165.902C52.5386 167.085 53.3755 168.112 54.5524 168.236C62.3112 169.05 74.9876 166.891 76.2437 152.502Z" fill="url(#paint1_linear_2754_3)"/>
<path d="M54.9417 129.097V181.976C54.9417 183.686 53.5551 185.073 51.8447 185.073H10.097C8.38655 185.073 6.99997 183.686 6.99997 181.976L7.00001 129.097C7.00001 127.387 8.38659 126 10.097 126H51.8447C53.5551 126 54.9417 127.387 54.9417 129.097Z" fill="url(#paint2_linear_2754_3)"/>
<defs>
<linearGradient id="paint0_linear_2754_3" x1="-23.4501" y1="116.755" x2="68.8627" y2="-6.92902e-07" gradientUnits="userSpaceOnUse">
<stop stop-color="#ECECEC"/>
<stop offset="1" stop-color="#F5F5F5" stop-opacity="0"/>
</linearGradient>
<linearGradient id="paint1_linear_2754_3" x1="84.3747" y1="141.425" x2="52.5386" y2="142.124" gradientUnits="userSpaceOnUse">
<stop stop-color="white"/>
<stop offset="1" stop-color="#CCCCCC"/>
</linearGradient>
<linearGradient id="paint2_linear_2754_3" x1="30.9708" y1="108.167" x2="30.9708" y2="203.391" gradientUnits="userSpaceOnUse">
<stop stop-color="white"/>
<stop offset="1" stop-color="#CCCCCC"/>
</linearGradient>
</defs>
</svg>
