<svg width="306" height="325" viewBox="0 0 306 325" fill="none" xmlns="http://www.w3.org/2000/svg">
<path d="M46.4938 166.58C57.7006 158.797 99.3971 144.779 118.845 138.743H140.688C153.651 141.957 182.776 149.681 195.567 154.867C208.358 160.052 231.677 190.757 241.039 205.017L230.852 224.524C204.925 250.105 225.815 272.691 239.643 281.045C218.901 281.045 209.971 273.267 208.098 269.378C210.172 281.131 211.843 309.997 212.419 322.96H59.8818V299.4H1.70281C-3.65878 240.738 32.4852 176.308 46.4938 166.58Z" fill="url(#paint0_linear_2749_3)"/>
<ellipse cx="131.413" cy="157.251" rx="25.9725" ry="18.5082" fill="#CF0606"/>
<path d="M112.131 155.34C115.502 135.956 114.315 118.019 113.788 111.83C114.525 106.036 145.184 116.888 159.933 122.682C151.611 126.896 149.354 147.966 149.267 157.974C149.53 161.266 147.476 168.246 137.151 169.826C119.874 171.827 113.272 161.003 112.131 155.34Z" fill="url(#paint1_linear_2749_3)"/>
<mask id="mask0_2749_3" style="mask-type:alpha" maskUnits="userSpaceOnUse" x="112" y="110" width="48" height="61">
<path d="M112.131 155.34C115.502 135.956 114.315 118.019 113.788 111.83C114.525 106.036 145.184 116.888 159.933 122.682C151.611 126.896 149.354 147.966 149.267 157.974C149.53 161.266 147.476 168.246 137.151 169.826C119.874 171.827 113.272 161.003 112.131 155.34Z" fill="#BABABA"/>
</mask>
<g mask="url(#mask0_2749_3)">
<path opacity="0.1" d="M154.83 142.793C134.067 139.553 118.673 121.299 113.572 112.577C125.422 110.132 152.069 106.709 163.849 112.577C175.629 118.444 162.745 135.165 154.83 142.793Z" fill="black"/>
</g>
<path d="M148.504 126.231C182.607 124.749 183.581 78.1123 179.806 54.9795C118.191 2.75546 93.4522 43.7906 88.7844 70.8361C94.4818 89.919 114.402 127.714 148.504 126.231Z" fill="url(#paint2_linear_2749_3)"/>
<path d="M104.486 8.36549C94.6748 5.27291 74.2211 3.72664 70.8938 22.2822C70.8938 34.2793 99.8468 31.24 104.486 8.36549Z" fill="#30235B"/>
<path d="M116.298 69.9888L130.194 81.9229L128.686 88.8831L115.726 77.5089L116.298 69.9888Z" fill="#111111"/>
<path d="M102.17 80.7206C114.032 90.77 114.8 106.462 113.702 113.052C109.858 112.022 99.1221 105.35 86.9309 86.8985C67.491 47.1951 90.9122 17.4999 105.053 7.61527C142.944 -14.4193 193.603 19.7651 184.748 45.9183C175.893 72.0715 133.54 66.0309 117.82 56.009C121.115 65.8936 118.095 75.641 116.173 79.2791C108.76 61.9809 87.3428 68.1588 102.17 80.7206Z" fill="#30235B"/>
<path d="M127.562 2.51253C152.794 -4.73492 168.161 8.3284 172.691 15.766C167.602 13.0258 153.498 9.1896 137.796 15.766C112.966 27.174 107.542 51.5 107.933 62.2369L91.4924 61.0626V55.023C93.0023 40.5393 102.33 9.75999 127.562 2.51253Z" fill="white"/>
<ellipse cx="98.2258" cy="76.9579" rx="19.2976" ry="23.6088" fill="white"/>
<ellipse cx="98.2258" cy="76.9579" rx="19.2976" ry="23.6088" fill="white"/>
<ellipse cx="98.226" cy="76.9579" rx="9.21133" ry="11.2692" fill="#24C28A"/>
<path opacity="0.5" d="M182.544 73.3551C175.391 71.1443 167.687 75.8573 164.73 78.4902C159.352 83.6253 167.507 96.6827 176.935 90.6679C184.478 85.8561 183.817 77.1211 182.544 73.3551Z" fill="#E6FCFF"/>
<path fill-rule="evenodd" clip-rule="evenodd" d="M161.699 76.9402C172.045 67.3832 181.856 69.0171 185.468 71.0287C187.559 76.564 185.468 92.7393 173.93 94.1733C164.7 95.3205 161.537 88.1843 161.109 84.4727C159.354 83.0556 158.189 84.2772 157.826 85.0651C158.129 95.3801 149.836 102.358 140.937 100.74C133.818 99.4455 130.718 92.3312 130.059 88.9359H128.587V82.9003C137.857 73.8227 150.665 76.0477 155.911 78.2949C157.29 77.2112 160.344 76.9402 161.699 76.9402ZM182.001 74.0027C174.848 71.7919 168.312 75.5799 165.355 78.2128C159.977 83.3479 167.04 95.9282 176.91 90.6678C182.82 87.5177 183.274 77.7687 182.001 74.0027ZM141.555 80.734C145.461 79.4628 153.425 78.6123 154.036 85.3794C154.798 93.8382 147.102 100.078 140.377 96.7503C135.507 94.3407 133.512 89.4008 133.512 86.2808C133.512 83.7847 138.874 81.5429 141.555 80.734Z" fill="#111111"/>
<path opacity="0.5" d="M154.061 85.3796C153.451 78.6125 145.487 79.463 141.581 80.7342C138.9 81.5431 133.538 83.7849 133.538 86.2809C133.538 89.401 135.533 94.3409 140.403 96.7505C147.128 100.079 154.824 93.8384 154.061 85.3796Z" fill="#E6FCFF"/>
<path d="M1.65343 299.476C7.65274 326.212 43.2793 326.266 60.3426 322.951L191.868 303.949C193.564 305.421 197.624 309.304 200.301 313.055C202.979 316.806 205.433 314.169 206.325 312.382C210.18 316.558 213.018 314.571 213.955 313.055C217.275 317.235 220.068 315.776 221.049 314.524C225.654 317.951 226.816 314.973 226.822 313.055C220.54 299.753 209.27 286.42 204.42 281.416L171.626 284.418L65.0703 273.555C44.8552 259.371 -5.84569 266.055 1.65343 299.476Z" fill="url(#paint3_linear_2749_3)"/>
<path d="M256.492 259.023C250.551 278.21 242.36 281.562 239.008 280.84C203.721 257.228 218.874 233.032 230.861 223.885L262.106 159.554C257.582 156.017 252.542 144.95 253.059 137.971C253.472 132.388 257.281 132.201 259.133 132.805C259.65 127.02 263.829 127.204 265.854 128.02C267.611 121.713 272.703 123.065 275.03 124.53C275.34 115.845 281.363 117.034 284.335 118.714L289.553 132.805C291.684 133.101 296.629 133.786 299.352 134.157C302.756 134.622 307.088 135.24 304.922 140.037C303.189 143.874 294.401 157.006 290.223 163.092C281.455 187.075 262.434 239.837 256.492 259.023Z" fill="url(#paint4_linear_2749_3)"/>
<path d="M166.551 316.058H235.356V316.058C235.356 319.87 232.266 322.961 228.454 322.961H173.453C169.641 322.961 166.551 319.87 166.551 316.058V316.058Z" fill="#B4B4B4"/>
<path d="M65.1111 273.523L68.1966 249.234" stroke="#30235B" stroke-width="0.619401"/>
<path d="M208.004 269.522C207.541 266.67 206.755 259.779 207.31 255.025" stroke="#30235B" stroke-width="0.619401"/>
<path d="M207.166 260.342L204.511 254.963" stroke="#30235B" stroke-width="0.619401"/>
<path d="M206.227 312.16L197.609 301.282" stroke="#30235B" stroke-width="0.619401"/>
<path d="M213.855 312.698L200.405 295.242" stroke="#30235B" stroke-width="0.619401"/>
<path d="M220.926 314.297L204.207 290.209" stroke="#30235B" stroke-width="0.619401"/>
<path d="M259.129 132.91C259.589 135.305 261.092 140.968 263.418 144.457" stroke="#30235B" stroke-width="0.619401"/>
<path d="M275.059 124.581C275.763 127.053 277.597 132.628 279.296 135.153" stroke="#30235B" stroke-width="0.619401"/>
<path d="M265.76 128.173C266.59 130.864 268.65 136.78 270.252 138.916" stroke="#30235B" stroke-width="0.619401"/>
<path d="M289.487 132.797L292.051 140.299" stroke="#30235B" stroke-width="0.619401"/>
<path d="M94.3293 99.3739C88.9569 98.2457 78.2996 91.1987 79.2614 75.0087" stroke="#30235B" stroke-width="0.949425"/>
<path d="M170.021 12.5478C167.096 8.20605 160.185 1.78897 146.255 1.13086" stroke="#30235B" stroke-width="0.949425"/>
<path d="M230.818 223.829L240.409 204.162" stroke="#30235B" stroke-width="0.949425"/>
<path d="M150.67 282.173C147.481 292.934 149.341 305.09 150.67 309.822L159.535 308.566C157.687 294.464 158.765 285.748 159.535 283.152L150.67 282.173Z" fill="#30235B"/>
<rect x="147.158" y="277.565" width="16.7668" height="4.34698" rx="2.17349" transform="rotate(6.01694 147.158 277.565)" fill="url(#paint5_linear_2749_3)"/>
<defs>
<linearGradient id="paint0_linear_2749_3" x1="133.501" y1="108.454" x2="121.102" y2="356.791" gradientUnits="userSpaceOnUse">
<stop stop-color="#FF9F81"/>
<stop offset="1" stop-color="#F53838"/>
</linearGradient>
<linearGradient id="paint1_linear_2749_3" x1="133.367" y1="41.2344" x2="131.15" y2="151.535" gradientUnits="userSpaceOnUse">
<stop stop-color="#FFEFE0"/>
<stop offset="1" stop-color="#FFBE99"/>
</linearGradient>
<linearGradient id="paint2_linear_2749_3" x1="135.048" y1="29.8186" x2="135.048" y2="126.274" gradientUnits="userSpaceOnUse">
<stop stop-color="#FFEFE0"/>
<stop offset="1" stop-color="#FFBE99"/>
</linearGradient>
<linearGradient id="paint3_linear_2749_3" x1="113.862" y1="230.526" x2="113.862" y2="314.392" gradientUnits="userSpaceOnUse">
<stop offset="0.0677966" stop-color="#FFEFE0"/>
<stop offset="1" stop-color="#FFBE99"/>
</linearGradient>
<linearGradient id="paint4_linear_2749_3" x1="230.748" y1="107.436" x2="312.133" y2="202.684" gradientUnits="userSpaceOnUse">
<stop stop-color="#FFEFE0"/>
<stop offset="1" stop-color="#FFBE99"/>
</linearGradient>
<linearGradient id="paint5_linear_2749_3" x1="155.223" y1="276.715" x2="155.111" y2="281.983" gradientUnits="userSpaceOnUse">
<stop stop-color="#7F67CE"/>
<stop offset="1" stop-color="#30235B"/>
</linearGradient>
</defs>
</svg>
